# xmcd CD database file generated by Grip 2.95
# 
# Track frame offsets:
#       150
#       11927
#       23486
#       35891
#       45875
#       56735
#       67079
#       78186
#       88863
#       102605
#       113020
#       124744
#       136029
#       146528
#       158418
#       169745
#       184204
#       194601
#       207166
#       218163
# 
# Disc length: 3045 seconds
# 
# Revision: 3
# Processed by: cddbd v1.4b41PL1 Copyright (c) Steve Scherf et al.
# Submitted via: Grip 2.95
# 
DISCID=190be314
DTITLE=Patsy Cline - Best Of
DYEAR=1900
DGENRE=
TTITLE0=Walkin' After Midnight
TTITLE1=I've Loved And Lost Again
TTITLE2=A Poor Man's Roses (Or A Rich Man's Gold)
TTITLE3=Turn The Cards Slowly
TTITLE4=I Cried All The Way To The Alter
TTITLE5=Pick Me Up (On Your Way Down)
TTITLE6=A Stranger In My Arms
TTITLE7=Honky Tonk Merry-Go-Round
TTITLE8=A Church, A Courtroom And Then goodbye
TTITLE9=Three Cigarettes In An Ashtray
TTITLE10=Never No More
TTITLE11=Dear God
TTITLE12=Lovesick Blues
TTITLE13=If I Could Only Stay Asleep
TTITLE14=Just Out Of Reach
TTITLE15=Then You'll Know
TTITLE16=I Love You Honey
TTITLE17=Fingerprints
TTITLE18=There He Goes
TTITLE19=He'll Do For You (What He's Done For Me)
EXTD=
EXTT0=
EXTT1=
EXTT2=
EXTT3=
EXTT4=
EXTT5=
EXTT6=
EXTT7=
EXTT8=
EXTT9=
EXTT10=
EXTT11=
EXTT12=
EXTT13=
EXTT14=
EXTT15=
EXTT16=
EXTT17=
EXTT18=
EXTT19=
PLAYORDER=
